<svg width="300" height="400" viewBox="0 0 300 400" xmlns="http://www.w3.org/2000/svg">
  <!-- Character SVG -->
  <g id="character">
    <!-- Body -->
    <ellipse cx="150" cy="350" rx="70" ry="30" fill="#ff9ed8" />
    <path d="M110 200 Q 150 280 190 200 Q 200 100 150 100 Q 100 100 110 200 Z" fill="#ffb8e6" />
    
    <!-- Head -->
    <circle cx="150" cy="100" r="50" fill="#ffe6f2" />
    
    <!-- Eyes -->
    <g id="eyes">
      <ellipse cx="130" cy="90" rx="10" ry="12" fill="#343434" />
      <ellipse cx="170" cy="90" rx="10" ry="12" fill="#343434" />
      
      <!-- Eye highlights -->
      <circle cx="127" cy="85" r="3" fill="white" />
      <circle cx="167" cy="85" r="3" fill="white" />
    </g>
    
    <!-- Mouth -->
    <path d="M130 125 Q150 135 170 125" fill="none" stroke="#ff5ca3" stroke-width="3" />
    
    <!-- Blush -->
    <circle cx="115" cy="110" r="10" fill="#ffb8e6" opacity="0.6" />
    <circle cx="185" cy="110" r="10" fill="#ffb8e6" opacity="0.6" />
    
    <!-- Hair -->
    <path d="M100 100 Q 90 70 100 50 Q 120 30 150 30 Q 180 30 200 50 Q 210 70 200 100 Z" fill="#ff7bbf" />
    <path d="M90 100 Q 80 130 90 150" fill="#ff7bbf" />
    <path d="M210 100 Q 220 130 210 150" fill="#ff7bbf" />
  </g>
</svg>
